<?xml version="1.0" encoding="utf-8"?>
<!DOCTYPE svg PUBLIC "-//W3C//DTD SVG 1.1//EN" "http://www.w3.org/Graphics/SVG/1.1/DTD/svg11.dtd">
<svg version="1.1" id="Layer_1" xmlns="http://www.w3.org/2000/svg" xmlns:xlink="http://www.w3.org/1999/xlink" x="0px" y="0px"
	 width="29.973px" height="21.524px" viewBox="0 0 29.973 21.524" enable-background="new 0 0 29.973 21.524" xml:space="preserve">
<g>
	<path fill="#0062B3" d="M29.392,1.792c-0.002,0-0.004,0-0.006,0l0,0h-1.97V1.116c0.011-0.266-0.162-0.506-0.418-0.58
		C25.63,0.177,24.223-0.003,22.809,0c-2.323,0-5.49,0.523-7.831,2.907C12.653,0.501,9.464,0,7.146,0
		C5.732-0.003,4.324,0.177,2.957,0.536C2.701,0.61,2.528,0.851,2.539,1.116v0.67H0.581C0.26,1.786,0,2.046,0,2.367v18.574
		c0,0.321,0.26,0.581,0.581,0.581c0.1,0,0.198-0.026,0.285-0.076c0.058-0.029,5.868-3.209,13.979-1.162h0.087h0.052
		c0.047,0.006,0.094,0.006,0.141,0c8.133-2.064,13.943,1.11,13.978,1.162c0.18,0.104,0.401,0.104,0.581,0
		c0.179-0.103,0.289-0.293,0.291-0.5V2.373C29.973,2.052,29.712,1.792,29.392,1.792z M1.162,20.017V2.954H2.55v14.585
		c-0.004,0.321,0.253,0.585,0.574,0.589c0.031,0,0.063-0.003,0.094-0.008c1.202-0.184,2.416-0.281,3.631-0.29
		c1.684-0.029,3.361,0.224,4.961,0.75C8.197,18.142,4.531,18.637,1.162,20.017z M6.85,16.673c-1.057,0.002-2.112,0.07-3.161,0.203
		V1.577C4.82,1.323,5.975,1.195,7.134,1.192c2.172,0,5.17,0.5,7.25,2.85l0.018,14.485C13.193,17.736,10.835,16.673,6.85,16.673z
		 M15.564,4.042c2.079-2.326,5.077-2.85,7.25-2.85c1.159,0.004,2.314,0.132,3.445,0.385v15.299
		c-1.042-0.135-2.092-0.204-3.143-0.209c-3.963,0-6.327,1.064-7.553,1.854V4.042z M28.805,20.017
		c-3.377-1.384-7.051-1.878-10.673-1.437c1.608-0.528,3.293-0.781,4.985-0.75c1.223,0.007,2.444,0.102,3.654,0.284
		c0.316,0.049,0.613-0.169,0.661-0.487c0.005-0.031,0.007-0.063,0.007-0.094V2.954h1.389L28.805,20.017z"/>
</g>
</svg>
