<?xml version="1.0" encoding="utf-8"?>
<!-- Generator: Adobe Illustrator 14.0.0, SVG Export Plug-In . SVG Version: 6.00 Build 43363)  -->
<!DOCTYPE svg PUBLIC "-//W3C//DTD SVG 1.1//EN" "http://www.w3.org/Graphics/SVG/1.1/DTD/svg11.dtd">
<svg version="1.1" id="Layer_1" xmlns="http://www.w3.org/2000/svg" xmlns:xlink="http://www.w3.org/1999/xlink" x="0px" y="0px"
	 width="19.991px" height="12.499px" viewBox="0 0 19.991 12.499" enable-background="new 0 0 19.991 12.499" xml:space="preserve">
<g>
	<path fill="#fff" d="M7.313,12.499c-0.351,0-0.654-0.155-0.726-0.496L5.605,7.329l-0.647,1.11C4.825,8.663,4.582,8.823,4.32,8.823
		H0.74C0.332,8.823,0,8.493,0,8.089c0-0.406,0.332-0.737,0.74-0.737h3.157l1.407-2.362C5.46,4.729,5.759,4.587,6.063,4.639
		c0.302,0.05,0.542,0.278,0.604,0.575l0.595,2.855l1.357-7.477C8.683,0.243,8.989,0,9.348,0c0.001,0,0.003,0,0.004,0
		c0.359,0,0.666,0.247,0.727,0.6l1.448,8.393l0.466-1.173c0.111-0.281,0.385-0.469,0.688-0.469h6.57c0.409,0,0.74,0.33,0.74,0.737
		c0,0.404-0.331,0.734-0.74,0.734h-6.067l-1.253,3.146c-0.122,0.307-0.43,0.492-0.766,0.461c-0.329-0.035-0.597-0.283-0.652-0.607
		L9.33,4.963l-1.288,7.021c-0.063,0.348-0.364,0.516-0.719,0.516C7.319,12.499,7.316,12.499,7.313,12.499z"/>
</g>
</svg>
