<?xml version="1.0" encoding="utf-8"?>
<!-- Generator: Adobe Illustrator 14.0.0, SVG Export Plug-In . SVG Version: 6.00 Build 43363)  -->
<!DOCTYPE svg PUBLIC "-//W3C//DTD SVG 1.1//EN" "http://www.w3.org/Graphics/SVG/1.1/DTD/svg11.dtd">
<svg version="1.1" id="Layer_1" xmlns="http://www.w3.org/2000/svg" xmlns:xlink="http://www.w3.org/1999/xlink" x="0px" y="0px"
	 width="24.875px" height="21.989px" viewBox="0 0 24.875 21.989" enable-background="new 0 0 24.875 21.989" xml:space="preserve">
<g>
	<path fill="#0062B3" d="M23.118,3.935h-2.771V1.254C20.348,0.563,19.784,0,19.093,0H5.782C5.091,0,4.527,0.563,4.527,1.254v2.681
		H1.757C0.788,3.935,0,4.722,0,5.69v14.544c0,0.968,0.788,1.755,1.757,1.755h21.361c0.969,0,1.757-0.787,1.757-1.755V5.69
		C24.875,4.722,24.087,3.935,23.118,3.935z M6.033,1.505h12.809v2.43H6.033V1.505z M1.757,5.439h21.361
		c0.136,0,0.251,0.114,0.251,0.251v4.514h-7.612V9.529c0-0.692-0.563-1.254-1.255-1.254h-4.129c-0.692,0-1.255,0.562-1.255,1.254
		v0.675H1.506V5.69C1.506,5.554,1.62,5.439,1.757,5.439z M14.251,9.78v2.43h-3.627V9.78H14.251L14.251,9.78z M23.118,20.485H1.757
		c-0.137,0-0.251-0.115-0.251-0.251v-8.525h7.612v0.751c0,0.692,0.563,1.254,1.255,1.254h4.129c0.692,0,1.255-0.562,1.255-1.254
		v-0.751h7.612v8.525C23.369,20.37,23.254,20.485,23.118,20.485z"/>
</g>
</svg>
