<?xml version="1.0" encoding="utf-8"?>
<!DOCTYPE svg PUBLIC "-//W3C//DTD SVG 1.1//EN" "http://www.w3.org/Graphics/SVG/1.1/DTD/svg11.dtd">
<svg version="1.1" id="Layer_1" xmlns="http://www.w3.org/2000/svg" xmlns:xlink="http://www.w3.org/1999/xlink" x="0px" y="0px"
	 width="33.989px" height="25.4px" viewBox="0 0 33.989 25.4" enable-background="new 0 0 33.989 25.4" xml:space="preserve">
<g>
	<path fill="#0062B3" d="M33.597,8.217L17.311,0.075c-0.199-0.1-0.434-0.1-0.633,0L0.391,8.217C0.151,8.338,0,8.583,0,8.851
		c0,0.269,0.151,0.513,0.391,0.634l5.392,2.695v5.41c0,3.341,4.925,5.959,11.212,5.959s11.211-2.617,11.211-5.959v-5.41l1.883-0.941
		v5.164c-0.868,0.295-1.494,1.117-1.494,2.084c0,0.876,0.515,1.633,1.257,1.988l-1.504,3.968c-0.083,0.218-0.053,0.462,0.079,0.653
		c0.133,0.191,0.351,0.305,0.583,0.305h3.573c0.233,0,0.451-0.113,0.584-0.305c0.131-0.191,0.161-0.436,0.078-0.653l-1.504-3.968
		c0.742-0.355,1.257-1.112,1.257-1.988c0-0.967-0.626-1.789-1.493-2.084V10.53l2.094-1.046c0.239-0.121,0.391-0.365,0.391-0.634
		C33.989,8.583,33.837,8.338,33.597,8.217z M24.104,20.67c-1.887,0.943-4.412,1.463-7.109,1.463c-2.698,0-5.223-0.52-7.111-1.463
		c-1.706-0.854-2.685-1.976-2.685-3.08v-4.703l9.479,4.739c0.1,0.05,0.207,0.075,0.316,0.075c0.108,0,0.217-0.025,0.316-0.075
		l9.479-4.739v4.703l0,0C26.79,18.694,25.811,19.816,24.104,20.67z M30.035,23.985l0.761-2.008l0.762,2.008H30.035z M31.581,18.486
		c0,0.433-0.352,0.785-0.785,0.785c-0.433,0-0.785-0.353-0.785-0.785c0-0.432,0.352-0.783,0.782-0.785c0.001,0,0.002,0,0.003,0
		c0.002,0,0.003,0,0.004,0C31.231,17.703,31.581,18.055,31.581,18.486z M16.995,16.201L2.292,8.851L16.995,1.5l14.703,7.351
		L16.995,16.201z"/>
</g>
</svg>
