<?xml version="1.0" encoding="utf-8"?>
<!-- Generator: Adobe Illustrator 14.0.0, SVG Export Plug-In . SVG Version: 6.00 Build 43363)  -->
<!DOCTYPE svg PUBLIC "-//W3C//DTD SVG 1.1//EN" "http://www.w3.org/Graphics/SVG/1.1/DTD/svg11.dtd">
<svg version="1.1" id="Layer_1" xmlns="http://www.w3.org/2000/svg" xmlns:xlink="http://www.w3.org/1999/xlink" x="0px" y="0px"
	 width="14.983px" height="15.981px" viewBox="0 0 14.983 15.981" enable-background="new 0 0 14.983 15.981" xml:space="preserve">
<g>
	<path fill="#fff" d="M11.442,7.285c-0.081-0.18-0.259-0.293-0.454-0.293H8.99V0.5C8.99,0.224,8.766,0,8.491,0H6.493
		C6.217,0,5.994,0.224,5.994,0.5v6.492H3.996c-0.195,0-0.373,0.114-0.455,0.293C3.459,7.463,3.491,7.672,3.621,7.82l3.496,3.995
		c0.094,0.108,0.23,0.171,0.375,0.171c0.144,0,0.281-0.063,0.375-0.171l3.496-3.995C11.494,7.674,11.523,7.463,11.442,7.285z"/>
	<path fill="#fff" d="M12.986,10.987v2.997H1.998v-2.997H0v3.995c0,0.553,0.448,0.999,0.999,0.999h12.985
		c0.553,0,0.999-0.446,0.999-0.999v-3.995H12.986z"/>
</g>
</svg>
