<?xml version="1.0" encoding="utf-8"?>
<!DOCTYPE svg PUBLIC "-//W3C//DTD SVG 1.1//EN" "http://www.w3.org/Graphics/SVG/1.1/DTD/svg11.dtd">
<svg version="1.1" id="Layer_1" xmlns="http://www.w3.org/2000/svg" xmlns:xlink="http://www.w3.org/1999/xlink" x="0px" y="0px"
	 width="9.748px" height="17.997px" viewBox="0 0 9.748 17.997" enable-background="new 0 0 9.748 17.997" xml:space="preserve">
<g>
	<path fill="#fff" d="M9.381,0.004L7.043,0C4.416,0,2.719,1.738,2.719,4.43v2.042H0.367C0.164,6.472,0,6.636,0,6.839v2.958
		C0,10,0.165,10.164,0.367,10.164h2.351v7.467c0,0.203,0.165,0.366,0.368,0.366h3.067c0.203,0,0.367-0.163,0.367-0.366v-7.467H9.27
		c0.203,0,0.368-0.164,0.368-0.367l0.001-2.958c0-0.098-0.039-0.19-0.108-0.26C9.462,6.51,9.368,6.472,9.271,6.472h-2.75V4.74
		c0-0.832,0.199-1.255,1.285-1.255l1.575,0c0.202,0,0.367-0.165,0.367-0.367V0.371C9.748,0.168,9.584,0.004,9.381,0.004z"/>
</g>
</svg>
