<?xml version="1.0" encoding="utf-8"?>
<!-- Generator: Adobe Illustrator 14.0.0, SVG Export Plug-In . SVG Version: 6.00 Build 43363)  -->
<!DOCTYPE svg PUBLIC "-//W3C//DTD SVG 1.1//EN" "http://www.w3.org/Graphics/SVG/1.1/DTD/svg11.dtd">
<svg version="1.1" id="Layer_1" xmlns="http://www.w3.org/2000/svg" xmlns:xlink="http://www.w3.org/1999/xlink" x="0px" y="0px"
	 width="20px" height="20px" viewBox="0 0 20 20" enable-background="new 0 0 20 20" xml:space="preserve">
<g>
	<path fill="#fff " d="M13.75,0h-7.5C2.799,0,0,2.798,0,6.25v7.5C0,17.201,2.799,20,6.25,20h7.5c3.451,0,6.25-2.799,6.25-6.25v-7.5
		C20,2.798,17.201,0,13.75,0z M18.125,13.75c0,2.412-1.963,4.375-4.375,4.375h-7.5c-2.412,0-4.375-1.963-4.375-4.375v-7.5
		c0-2.412,1.963-4.375,4.375-4.375h7.5c2.412,0,4.375,1.962,4.375,4.375V13.75z"/>
	<path fill="#fff " d="M10,5c-2.762,0-5,2.238-5,5c0,2.761,2.238,5,5,5s5-2.239,5-5C15,7.238,12.762,5,10,5z M10,13.125
		c-1.723,0-3.125-1.402-3.125-3.125c0-1.724,1.402-3.125,3.125-3.125S13.125,8.276,13.125,10C13.125,11.723,11.723,13.125,10,13.125
		z"/>
	<path fill="#fff " d="M15.375,3.959c0.368,0,0.666,0.298,0.666,0.666s-0.298,0.666-0.666,0.666s-0.666-0.298-0.666-0.666
		S15.007,3.959,15.375,3.959z"/>
</g>
</svg>
