<?xml version="1.0" encoding="utf-8"?>
<!DOCTYPE svg PUBLIC "-//W3C//DTD SVG 1.1//EN" "http://www.w3.org/Graphics/SVG/1.1/DTD/svg11.dtd">
<svg version="1.1" id="Layer_1" xmlns="http://www.w3.org/2000/svg" xmlns:xlink="http://www.w3.org/1999/xlink" x="0px" y="0px"
	 width="29.945px" height="29.99px" viewBox="0 0 29.945 29.99" enable-background="new 0 0 29.945 29.99" xml:space="preserve">
<g>
	<path fill="#fff" d="M3.336,9.732h-2.61C0.325,9.732,0,10.058,0,10.459c0,0.4,0.325,0.725,0.726,0.725h2.61
		c0.4,0,0.726-0.324,0.726-0.725C4.062,10.058,3.736,9.732,3.336,9.732z"/>
	<path fill="#fff" d="M29.22,9.732h-2.61c-0.401,0-0.726,0.325-0.726,0.727c0,0.4,0.324,0.725,0.726,0.725h2.61
		c0.4,0,0.726-0.324,0.726-0.725C29.945,10.058,29.62,9.732,29.22,9.732z"/>
	<path fill="#fff" d="M6.324,19.107c-0.283-0.283-0.742-0.283-1.025,0L3.4,21.006c-0.283,0.283-0.283,0.743,0,1.026
		c0.142,0.142,0.327,0.212,0.513,0.212s0.371-0.07,0.513-0.212l1.898-1.899C6.608,19.85,6.608,19.391,6.324,19.107z"/>
	<path fill="#fff" d="M25.217,0.213c-0.283-0.283-0.742-0.283-1.025,0L22.344,2.06c-0.283,0.283-0.283,0.743,0,1.026
		c0.143,0.142,0.328,0.212,0.514,0.212s0.371-0.07,0.513-0.212l1.847-1.848C25.5,0.955,25.5,0.496,25.217,0.213z"/>
	<path fill="#fff" d="M7.6,2.059L5.754,0.213c-0.283-0.283-0.742-0.283-1.025,0c-0.284,0.283-0.284,0.742,0,1.025l1.846,1.846
		c0.142,0.143,0.327,0.213,0.513,0.213S7.458,3.227,7.6,3.084C7.883,2.801,7.883,2.342,7.6,2.059z"/>
	<path fill="#fff" d="M26.545,21.006l-1.892-1.892c-0.283-0.284-0.743-0.284-1.026,0c-0.283,0.283-0.283,0.743,0,1.026l1.892,1.892
		c0.142,0.142,0.327,0.213,0.514,0.213c0.186,0,0.371-0.071,0.513-0.213C26.828,21.749,26.828,21.29,26.545,21.006z"/>
	<path fill="#fff" d="M14.973,1.971c-5.017,0-9.098,4.27-9.098,9.517c0,2.44,0.874,5.065,2.397,7.205
		c1.171,1.644,1.789,3.471,1.789,5.286v4.562c0,0.8,0.65,1.45,1.45,1.45h6.921c0.801,0,1.451-0.65,1.451-1.45v-4.562
		c0-1.815,0.618-3.643,1.788-5.286c1.524-2.14,2.397-4.765,2.397-7.205C24.069,6.24,19.988,1.971,14.973,1.971z M18.433,28.54
		h-6.921v-0.949h3.461c0.4,0,0.726-0.325,0.726-0.726s-0.325-0.725-0.726-0.725h-3.461v-0.949h6.921V28.54
		C18.434,28.54,18.434,28.54,18.433,28.54z M13.955,15.004l-0.97-2.073h3.975l-0.97,2.073c-0.039,0.081-0.062,0.17-0.067,0.26
		L15.36,23.74h-0.776l-0.563-8.477C14.016,15.174,13.993,15.085,13.955,15.004z M20.49,17.851c-1.295,1.819-2.003,3.851-2.055,5.89
		h-1.621l0.547-8.244l1.396-2.982c0.104-0.226,0.088-0.488-0.045-0.697c-0.134-0.209-0.364-0.336-0.612-0.336h-6.256
		c-0.248,0-0.479,0.127-0.612,0.336s-0.15,0.472-0.045,0.697l1.396,2.982l0.548,8.244h-1.622c-0.051-2.039-0.759-4.07-2.055-5.89
		c-1.333-1.872-2.128-4.249-2.128-6.363c0-4.448,3.43-8.066,7.646-8.066c4.216,0,7.646,3.618,7.646,8.066
		C22.619,13.602,21.823,15.979,20.49,17.851z"/>
</g>
</svg>
