<?xml version="1.0" encoding="utf-8"?>
<!DOCTYPE svg PUBLIC "-//W3C//DTD SVG 1.1//EN" "http://www.w3.org/Graphics/SVG/1.1/DTD/svg11.dtd">
<svg version="1.1" id="Layer_1" xmlns="http://www.w3.org/2000/svg" xmlns:xlink="http://www.w3.org/1999/xlink" x="0px" y="0px"
	 width="16.016px" height="16.689px" viewBox="0 0 16.016 16.689" enable-background="new 0 0 16.016 16.689" xml:space="preserve">
<g>
	<path fill="#000" d="M15.772,15.201l-3.948-4.131c1.015-1.215,1.571-2.742,1.571-4.332C13.396,3.023,10.391,0,6.698,0
		C3.005,0,0,3.023,0,6.738s3.005,6.739,6.698,6.739c1.387,0,2.708-0.421,3.837-1.22l3.978,4.162c0.167,0.173,0.39,0.27,0.63,0.27
		c0.227,0,0.442-0.087,0.605-0.246C16.096,16.108,16.106,15.55,15.772,15.201z M6.698,1.758c2.73,0,4.951,2.234,4.951,4.98
		c0,2.746-2.221,4.98-4.951,4.98c-2.729,0-4.95-2.235-4.95-4.98C1.748,3.992,3.968,1.758,6.698,1.758z"/>
</g>
</svg>
