<?xml version="1.0" encoding="utf-8"?>
<!-- Generator: Adobe Illustrator 14.0.0, SVG Export Plug-In . SVG Version: 6.00 Build 43363)  -->
<!DOCTYPE svg PUBLIC "-//W3C//DTD SVG 1.1//EN" "http://www.w3.org/Graphics/SVG/1.1/DTD/svg11.dtd">
<svg version="1.1" id="Layer_1" xmlns="http://www.w3.org/2000/svg" xmlns:xlink="http://www.w3.org/1999/xlink" x="0px" y="0px"
	 width="20.012px" height="17.1px" viewBox="0 0 20.012 17.1" enable-background="new 0 0 20.012 17.1" xml:space="preserve">
<g>
	<path fill="#FFFFFF" d="M4.108,8.781L2.959,7.635l0.97-2.339h-0.01L3.543,4.865C3.726,4.93,3.914,4.97,4.11,4.97
		c0.197,0,0.386-0.039,0.568-0.104l-0.377,0.43H4.293l0.97,2.339l-1.15,1.146c0.706-0.001,1.411-0.041,2.033-0.12
		C6.144,8.624,6.135,8.585,6.135,8.548c0-1.048,0.424-1.998,1.104-2.695C6.694,5.312,5.964,4.852,5.125,4.639
		c0.742-0.5,1.255-1.483,1.255-2.37c0-1.253-1.015-2.267-2.271-2.267c-1.253,0-2.27,1.014-2.27,2.267c0,0.887,0.513,1.87,1.256,2.37
		C1.317,5.09,0,6.63,0,7.772C0,8.448,2.053,8.782,4.108,8.781z"/>
	<path fill="#FFFFFF" d="M4.109,8.783l0.002-0.002H4.108L4.109,8.783z"/>
	<path fill="#FFFFFF" d="M13.878,8.547c0,0.038-0.008,0.076-0.01,0.114c0.622,0.079,1.327,0.118,2.033,0.119L14.75,7.634l0.97-2.339
		h-0.011l-0.375-0.431c0.181,0.065,0.37,0.105,0.567,0.105s0.386-0.04,0.567-0.105l-0.376,0.43h-0.01l0.972,2.339L15.902,8.78
		c2.056,0.001,4.109-0.332,4.109-1.009c0-1.143-1.319-2.683-3.096-3.134c0.743-0.5,1.255-1.483,1.255-2.371
		c0-1.252-1.017-2.267-2.27-2.267s-2.271,1.015-2.271,2.267c0,0.888,0.513,1.871,1.256,2.371c-0.839,0.213-1.568,0.673-2.113,1.214
		C13.455,6.549,13.878,7.499,13.878,8.547z"/>
	<path fill="#FFFFFF" d="M15.902,8.783l0.002-0.002h-0.003L15.902,8.783z"/>
	<path fill="#FFFFFF" d="M11.339,11.658c0.975-0.656,1.647-1.946,1.647-3.111c0-1.645-1.335-2.975-2.979-2.975
		c-1.646,0-2.979,1.332-2.979,2.975c0,1.165,0.671,2.455,1.647,3.111c-2.334,0.591-4.063,2.613-4.063,4.114
		c0,1.77,10.789,1.77,10.789,0C15.401,14.271,13.672,12.249,11.339,11.658z"/>
</g>
</svg>
