<?xml version="1.0" encoding="utf-8"?>
<!-- Generator: Adobe Illustrator 14.0.0, SVG Export Plug-In . SVG Version: 6.00 Build 43363)  -->
<!DOCTYPE svg PUBLIC "-//W3C//DTD SVG 1.1//EN" "http://www.w3.org/Graphics/SVG/1.1/DTD/svg11.dtd">
<svg version="1.1" id="Layer_1" xmlns="http://www.w3.org/2000/svg" xmlns:xlink="http://www.w3.org/1999/xlink" x="0px" y="0px"
	 width="20.005px" height="17.405px" viewBox="0 0 20.005 17.405" enable-background="new 0 0 20.005 17.405" xml:space="preserve">
<g>
	<path fill="#fff" d="M0.353,8.346l4.61,1.719l1.783,5.733c0.114,0.368,0.564,0.503,0.862,0.26l2.569-2.093
		c0.27-0.221,0.653-0.23,0.935-0.027l4.635,3.363c0.319,0.231,0.771,0.057,0.851-0.328l3.396-16.318
		c0.087-0.421-0.327-0.772-0.728-0.617L0.348,7.331C-0.119,7.51-0.115,8.17,0.353,8.346z M6.459,9.15l9.009-5.544
		c0.162-0.1,0.329,0.119,0.189,0.248l-7.435,6.905c-0.262,0.243-0.43,0.569-0.478,0.922l-0.254,1.876
		c-0.033,0.25-0.386,0.274-0.454,0.032l-0.975-3.42C5.952,9.78,6.114,9.363,6.459,9.15z"/>
</g>
</svg>
