<?xml version="1.0" encoding="utf-8"?>
<!DOCTYPE svg PUBLIC "-//W3C//DTD SVG 1.1//EN" "http://www.w3.org/Graphics/SVG/1.1/DTD/svg11.dtd">
<svg version="1.1" id="Layer_1" xmlns="http://www.w3.org/2000/svg" xmlns:xlink="http://www.w3.org/1999/xlink" x="0px" y="0px"
	 width="30px" height="21.447px" viewBox="0 0 30 21.447" enable-background="new 0 0 30 21.447" xml:space="preserve">
<g>
	<path fill="#0062B3" d="M15.718,21.447C15.717,21.447,15.718,21.447,15.718,21.447c-3.411,0-7.126-0.108-11.038-0.318
		c-2.312-0.127-4.105-1.908-4.359-4.332c-0.428-4.049-0.428-8.137,0-12.15c0.254-2.402,2.045-4.184,4.354-4.329
		c6.748-0.424,13.691-0.424,20.648,0c2.336,0.143,4.086,1.881,4.356,4.327c0.426,3.875,0.427,7.962,0.001,12.151
		c-0.246,2.422-1.995,4.163-4.352,4.331C22.363,21.339,19.129,21.447,15.718,21.447z M14.92,1.15c-3.4,0-6.824,0.107-10.174,0.317
		c-1.766,0.11-3.084,1.438-3.281,3.301c-0.418,3.933-0.418,7.938,0,11.908c0.197,1.879,1.515,3.205,3.276,3.302
		c3.892,0.21,7.585,0.317,10.976,0.317c3.385,0,6.59-0.106,9.528-0.316c1.778-0.128,3.099-1.454,3.286-3.3
		c0.419-4.108,0.419-8.115,0.001-11.908c-0.206-1.869-1.524-3.197-3.28-3.304C21.797,1.256,18.321,1.15,14.92,1.15z M12.065,6.645
		v7.902l7.594-3.924L12.065,6.645z"/>
</g>
</svg>
